<svg width="120" height="120" viewBox="0 0 120 120" fill="none" xmlns="http://www.w3.org/2000/svg">
  <rect width="120" height="120" rx="26" fill="url(#we1)"/>
  <!-- Sun -->
  <circle cx="52" cy="44" r="16" fill="#fdd835"/>
  <!-- Sun rays -->
  <line x1="52" y1="22" x2="52" y2="28" stroke="#fdd835" stroke-width="3" stroke-linecap="round"/>
  <line x1="52" y1="60" x2="52" y2="66" stroke="#fdd835" stroke-width="3" stroke-linecap="round" opacity="0.3"/>
  <line x1="30" y1="44" x2="36" y2="44" stroke="#fdd835" stroke-width="3" stroke-linecap="round"/>
  <line x1="68" y1="44" x2="74" y2="44" stroke="#fdd835" stroke-width="3" stroke-linecap="round" opacity="0.5"/>
  <line x1="37" y1="29" x2="41" y2="33" stroke="#fdd835" stroke-width="3" stroke-linecap="round"/>
  <line x1="63" y1="55" x2="67" y2="59" stroke="#fdd835" stroke-width="3" stroke-linecap="round" opacity="0.3"/>
  <line x1="67" y1="29" x2="63" y2="33" stroke="#fdd835" stroke-width="3" stroke-linecap="round"/>
  <line x1="37" y1="59" x2="41" y2="55" stroke="#fdd835" stroke-width="3" stroke-linecap="round" opacity="0.3"/>
  <!-- Cloud -->
  <ellipse cx="62" cy="68" rx="22" ry="12" fill="white" opacity="0.95"/>
  <ellipse cx="52" cy="62" rx="14" ry="12" fill="white" opacity="0.95"/>
  <ellipse cx="72" cy="64" rx="12" ry="10" fill="white" opacity="0.95"/>
  <ellipse cx="62" cy="58" rx="10" ry="8" fill="white" opacity="0.95"/>
  <defs>
    <linearGradient id="we1" x1="0" y1="0" x2="120" y2="120"><stop stop-color="#42a5f5"/><stop offset="1" stop-color="#1565c0"/></linearGradient>
  </defs>
</svg>