<svg xmlns="http://www.w3.org/2000/svg" viewBox="0 0 1920 1080" preserveAspectRatio="xMidYMid slice">
  <defs>
    <radialGradient id="nebBg" cx="50%" cy="50%" r="80%">
      <stop offset="0%" stop-color="#160924"/>
      <stop offset="100%" stop-color="#030108"/>
    </radialGradient>
    <radialGradient id="neb1" cx="30%" cy="45%" r="30%">
      <stop offset="0%" stop-color="#7b2bff" stop-opacity="0.9"/>
      <stop offset="60%" stop-color="#4b1e86" stop-opacity="0.3"/>
      <stop offset="100%" stop-color="#4b1e86" stop-opacity="0"/>
    </radialGradient>
    <radialGradient id="neb2" cx="70%" cy="60%" r="35%">
      <stop offset="0%" stop-color="#ff4db8" stop-opacity="0.8"/>
      <stop offset="60%" stop-color="#c21858" stop-opacity="0.3"/>
      <stop offset="100%" stop-color="#c21858" stop-opacity="0"/>
    </radialGradient>
    <radialGradient id="neb3" cx="55%" cy="30%" r="25%">
      <stop offset="0%" stop-color="#4dfff0" stop-opacity="0.7"/>
      <stop offset="60%" stop-color="#087aa8" stop-opacity="0.25"/>
      <stop offset="100%" stop-color="#087aa8" stop-opacity="0"/>
    </radialGradient>
    <filter id="nebBlur">
      <feGaussianBlur stdDeviation="40"/>
    </filter>
  </defs>
  <rect width="1920" height="1080" fill="url(#nebBg)"/>
  <g filter="url(#nebBlur)">
    <rect width="1920" height="1080" fill="url(#neb1)"/>
    <rect width="1920" height="1080" fill="url(#neb2)"/>
    <rect width="1920" height="1080" fill="url(#neb3)"/>
  </g>
  <!-- stars -->
  <g fill="#ffffff">
    <circle cx="100" cy="120" r="1.3"/>
    <circle cx="250" cy="60" r="0.9" opacity="0.7"/>
    <circle cx="400" cy="180" r="1.5"/>
    <circle cx="550" cy="80" r="0.8" opacity="0.6"/>
    <circle cx="720" cy="220" r="1.1"/>
    <circle cx="880" cy="140" r="1.4"/>
    <circle cx="1050" cy="50" r="0.9" opacity="0.7"/>
    <circle cx="1200" cy="260" r="1.6"/>
    <circle cx="1380" cy="120" r="1.2"/>
    <circle cx="1550" cy="200" r="0.9" opacity="0.6"/>
    <circle cx="1720" cy="80" r="1.1"/>
    <circle cx="1850" cy="240" r="1.4"/>
    <circle cx="60" cy="400" r="1.3"/>
    <circle cx="220" cy="480" r="0.8" opacity="0.6"/>
    <circle cx="380" cy="560" r="1.5"/>
    <circle cx="540" cy="420" r="1.0"/>
    <circle cx="720" cy="680" r="1.3"/>
    <circle cx="890" cy="540" r="1.1"/>
    <circle cx="1060" cy="460" r="0.9" opacity="0.7"/>
    <circle cx="1240" cy="620" r="1.4"/>
    <circle cx="1410" cy="500" r="1.2"/>
    <circle cx="1580" cy="640" r="0.9" opacity="0.6"/>
    <circle cx="1750" cy="540" r="1.3"/>
    <circle cx="1880" cy="680" r="1.1"/>
    <circle cx="140" cy="820" r="1.5"/>
    <circle cx="320" cy="900" r="1.0"/>
    <circle cx="500" cy="780" r="1.3"/>
    <circle cx="680" cy="960" r="0.9" opacity="0.7"/>
    <circle cx="860" cy="840" r="1.4"/>
    <circle cx="1040" cy="900" r="1.1"/>
    <circle cx="1220" cy="800" r="1.2"/>
    <circle cx="1400" cy="960" r="1.5"/>
    <circle cx="1580" cy="840" r="0.9" opacity="0.6"/>
    <circle cx="1760" cy="920" r="1.3"/>
    <circle cx="1900" cy="780" r="1.1"/>
  </g>
  <!-- bright center star -->
  <g transform="translate(960 540)">
    <circle r="3" fill="#ffffff"/>
    <circle r="8" fill="#ffffff" opacity="0.3"/>
    <line x1="-20" y1="0" x2="20" y2="0" stroke="#ffffff" stroke-width="1" opacity="0.5"/>
    <line x1="0" y1="-20" x2="0" y2="20" stroke="#ffffff" stroke-width="1" opacity="0.5"/>
  </g>
</svg>
