<svg width="120" height="120" viewBox="0 0 120 120" fill="none" xmlns="http://www.w3.org/2000/svg">
  <rect width="120" height="120" rx="26" fill="url(#f1)"/>
  <path d="M35 45C35 40 39 36 44 36H76C81 36 85 40 85 45V80C85 85 81 89 76 89H44C39 89 35 85 35 80V45Z" fill="rgba(255,255,255,0.15)" stroke="white" stroke-width="2"/>
  <path d="M35 45C35 40 39 36 44 36H76C81 36 85 40 85 45V55H35V45Z" fill="rgba(255,255,255,0.25)"/>
  <circle cx="44" cy="45" r="3" fill="#ff5f57"/>
  <circle cx="54" cy="45" r="3" fill="#febc2e"/>
  <circle cx="64" cy="45" r="3" fill="#28c840"/>
  <line x1="42" y1="65" x2="70" y2="65" stroke="white" stroke-width="2" stroke-linecap="round" opacity="0.6"/>
  <line x1="42" y1="73" x2="60" y2="73" stroke="white" stroke-width="2" stroke-linecap="round" opacity="0.4"/>
  <line x1="42" y1="81" x2="55" y2="81" stroke="white" stroke-width="2" stroke-linecap="round" opacity="0.3"/>
  <defs>
    <linearGradient id="f1" x1="0" y1="0" x2="120" y2="120"><stop stop-color="#1e88e5"/><stop offset="1" stop-color="#1565c0"/></linearGradient>
  </defs>
</svg>