<svg width="120" height="120" viewBox="0 0 120 120" fill="none" xmlns="http://www.w3.org/2000/svg">
  <rect width="120" height="120" rx="26" fill="url(#st1)"/>
  <!-- Gear outer shape using a path -->
  <g transform="translate(60,60)">
    <!-- Gear teeth -->
    <path d="M-5,-32 L5,-32 L6,-26 Q10,-25 13,-23 L18,-27 L25,-20 L21,-15 Q23,-12 24,-8 L30,-7 L30,5 L24,6 Q23,10 21,13 L25,18 L18,25 L13,21 Q10,23 6,24 L5,30 L-5,30 L-6,24 Q-10,23 -13,21 L-18,25 L-25,18 L-21,13 Q-23,10 -24,6 L-30,5 L-30,-7 L-24,-8 Q-23,-12 -21,-15 L-25,-20 L-18,-27 L-13,-23 Q-10,-25 -6,-26 Z" fill="white" opacity="0.9"/>
    <!-- Inner circle cutout -->
    <circle cx="0" cy="0" r="11" fill="url(#st1)"/>
    <!-- Inner ring -->
    <circle cx="0" cy="0" r="11" fill="none" stroke="white" stroke-width="1.5" opacity="0.4"/>
  </g>
  <defs>
    <linearGradient id="st1" x1="0" y1="0" x2="120" y2="120"><stop stop-color="#78909c"/><stop offset="1" stop-color="#455a64"/></linearGradient>
  </defs>
</svg>